<svg xmlns="http://www.w3.org/2000/svg" version="1.1" xmlns:xlink="http://www.w3.org/1999/xlink" xmlns:svgjs="http://svgjs.dev/svgjs" viewBox="0 0 800 800"><defs><linearGradient x1="50%" y1="0%" x2="50%" y2="100%" id="ssscribble-grad"><stop stop-color="hsl(206, 47%, 66%)" stop-opacity="1" offset="0%"></stop><stop stop-color="hsl(212, 58%, 22%)" stop-opacity="1" offset="100%"></stop></linearGradient></defs><g fill="none" stroke-width="1.5" stroke="url(#ssscribble-grad)" stroke-linecap="round"><path d="M778.19 179.56C994.71 212.42 1099.4 241.38 1009.07 269.18 801.86 300.61 642.09 337.78 634.86 386.81 770.12 447.3 934.06 526.38 1015.48 624.11 973.14 726.72 830.23 832.84 663.17 924.63 526.29 982.07 464.45 993.9 469.11 950.47 525.54 867.92 594.24 761.33 647.76 666.43 693.06 625.86 708.5 656.3 700.18 758.72 684.35 901.17 657.01 1033.61 624.15 1100.57 591.29 1073.96 554.46 964.79 508.32 820.82 454.67 693.77 379.45 626.22 277.21 631.12 166.73 701.5 43.92 802.23 -63.15 896.34 -118.45 964.93 -103.8 983.24 -9.98 953.27 114 883.72 217.95 789.79 226.07 690.13 110.44 587.67 -82.97 498.8 -242.32 426.95 -259.17 364.24 -118.11 315.35 76.41 275.65 154.06 239.49 42.71 206.14 -173.8 173.28 -301.09 140.42 -223.74 109.61 -18.83 83.79 147.18 61.52 150.21 50.62 11.67 56.38 -162.02 71.28 -237.41 106.03 -174.58 157.84 -10.94 206.86 163.87 253.62 276.58 280.1 301.69 267.01 251.05 209.75 170.1 106.95 79.63 -21.36 22.68 -151.56 5.74 -246.04 16.33 -275.04 52.96 -226.21 98.6 -111.86 151.8 19.42 198.31 121.95 231.17 148.59 264.03 81.65 281.69 -44.12 290.46 -173.89 306.79 -263.65 329.94 -275.4 376.3 -210.76 450.18 -91.77 561.25 44.28 702.37 161.04 833.97 238.7 931.78 265.84 949.74 251.48 880.1 202.77 744.24 143.83 614.81 91.87 586.21 44.77 691.06 19.81 888.85 16.26 1051.48 24.17 1067.15 46.78 913.81 77.32 721.59 111.49 650.9 146.7 778.19 179.56Q778.19 179.56 778.19 179.56" opacity="0.55"></path><path d="M744.19 194.49C946.66 225 1061.87 261.14 1009.08 304.1 830.71 349.61 651.66 406.24 580.61 475.89 647.44 550.34 793.16 637.21 922.9 730.84 976.53 816.08 924.18 890.25 800.78 938.06 645.96 950.28 515.1 920.61 432.7 849.87 399.04 761.03 406.33 668.51 430.99 602.38 471.7 592.23 502.32 644.85 513.99 753.73 524.86 888.15 515.15 1007.11 484.64 1066.57 454.12 1044.96 404.25 949.85 335.83 818.32 266.62 691.52 180.49 607.25 86.91 582.91 9.36 619.86 -48.16 696.88 -61.53 785.56 -26.17 870.1 60.87 922.6 175.71 935.92 259.12 913.99 275.28 860.1 189.88 788.04 28.37 701.88 -144.71 616.26 -233.9 539.18 -185.22 463.74 -23.54 400.63 143.04 349.82 184.05 300.95 62.66 261.47 -139.8 230.95 -264.44 200.44 -212.23 180.33 -32.31 171.66 147.1 164.91 206.16 172.51 125.43 195.07 -36.01 219.27 -165.47 254.64 -192.78 293.78 -110 318.81 41.5 328.9 194.56 310.85 309.48 257.55 355.72 168.88 345.67 52.57 291.79 -67.88 228.39 -172.27 178.37 -231.59 133.99 -229.64 115.83 -162.75 119.82 -47.73 129.88 72.01 152.48 160.95 182.99 182.59 213.51 123.14 250.49 10.38 297.97 -112.26 351.53 -209.37 425.19 -244.65 522.46 -212.14 625.36 -123.66 739.01 -3.77 839.91 116.83 896.99 219.35 894.56 285.21 819.63 312.99 706.57 305.18 591.24 274.82 540.23 236.61 599.32 190.02 756.14 153.4 939.96 131.83 1043.05 115.04 1001.36 113.92 833.72 125.95 665.58 140.54 619.55 163.98 744.19 194.49Q744.19 194.49 744.19 194.49" opacity="0.28"></path><path d="M710.19 300.83C898.08 329 1019.94 368.31 1001.52 418.12 859.27 468.68 680.24 530.48 562.33 601.5 556.03 670.7 649.43 743.47 779.87 811.63 892.96 864.12 932.42 897.03 893.58 900.36 792.23 875.13 663.97 818.29 543.5 737.39 439.46 656.66 370.91 587.5 332.08 552.62 315.26 569.89 310.31 639.38 304.49 750.22 303.49 874.69 291.11 980.23 262.94 1032.57 234.78 1015.5 192.16 933.95 140.04 816.08 92.73 693.7 46.44 598.82 14.45 550.33 4.47 554.52 26.64 601.56 87.27 672.08 164.33 754.88 252.15 824.12 316.58 867.92 318.51 887.55 245.65 876.59 103.23 842.33 -56.52 789.77 -175.19 727.31 -189.53 663.89 -92.27 596 70.73 534.72 202.1 483.54 209.65 432.34 82.08 391.99 -105.8 363.82 -226.66 335.65 -197.29 321 -45.8 319.07 133.96 317.13 236.47 327.17 218.11 346.25 98.36 360.86 -44.93 376.93 -137.96 386.09 -147.69 376.95 -69.23 347.47 58.18 290.94 201.84 210.23 317.41 107.6 388.85 -4.52 415.46 -140.52 343.88 -134.28 319.75 16.64 309.06 123.64 317.33 199.5 345.49 216.59 373.66 164.27 420.4 64.45 484.2 -49.16 547.95 -149.14 626.19 -202.6 710.03 -199.24 779.2 -143.72 830.98 -49.31 845.09 60.74 817.05 170.97 741.92 261.22 635.18 323.36 544.68 356.95 499.61 364.48 538.67 355.4 661.03 330.65 829.59 304.27 969.99 283.87 1008.99 261.67 922.51 251.11 753.62 253.66 613 256.98 589.33 272.67 710.19 300.83Q710.19 300.83 710.19 300.83" opacity="0.40"></path><path d="M676.19 451.29C849.05 477.11 973.77 513.81 985.3 559.55 882.98 604.45 720.93 656.29 577.94 710.88 508.67 759.57 533.17 803.64 623.4 835.61 744.21 851.31 839.81 845.68 882.26 814.59 868.7 766.48 803.92 699.77 712.39 625.01 603.97 563.55 503.96 522.96 422.6 518.4 351.28 558.37 299.31 638.98 261.21 747.64 227.98 860.65 200.13 952.98 174.31 998.57 148.49 985.59 125.92 916.95 110.46 813.55 99.87 699.19 104.87 599.77 131.44 533.45 168.06 508.71 225.55 523.98 294.18 568.05 345.91 634.31 373.62 702.31 353.35 759.24 277.06 805.42 150.84 828.69 3.14 830.29 -113.96 816 -161.61 786.49 -111.26 748.67 12.78 703.59 160.15 657.99 252.5 616.67 231 573.95 101.05 538.6 -71.8 512.78 -187.78 486.95 -178.57 471.89 -57.32 465.91 176.28 457.85 159.66 444.08 -18.72 412.08 -99.17 370.7 -107.41 310.36 -51.13 230.34 53.15 139.57 173.5 40.97 283.12 -52.18 377.64 -123.14 441.63 -161.57 480.1 -155.76 500.14 -108.39 509.17 -23.67 517.78 80.72 522 174.16 535.03 237.58 560.85 250.58 586.67 205 624.06 117.92 668.53 14.87 727.58 -116.79 766.8 -115.46 701.33 4.75 631.51 106.4 548.23 203.72 477.78 285.67 455.34 350.6 494.2 393.3 601.53 417.4 855.08 415.94 562.2 418.61 676.19 451.29Q676.19 451.29 676.19 451.29" opacity="0.52"></path><path d="M642.25 578.93C799.69 602.4 923.64 631.76 959.67 664.98 897.55 696.59 765.36 728.83 619.97 757.47 508.92 779.46 467.49 791.71 494.95 789.46 577.19 775.36 676.37 743.59 760.4 694.79 818.82 640.88 833.38 580.74 810.35 524.8 757.47 489.21 687.74 478.05 615.82 499.94 538.25 556.64 471.03 642.62 418.14 745.43 366.2 845.85 328.2 925.34 304.73 964.58 281.25 955.23 273.42 898.71 281.1 810.15 289.72 706.73 314.24 608.44 351.13 531.3 382.38 483.86 413.45 469.78 430.16 484.3 417.01 524.4 368.75 576.31 279.56 629.05 164.78 682.85 37.76 724.08 -68.91 749.78 -120.81 765.98 -100.43 767.01 -6.58 756.31 121.59 738.99 240.42 715.36 293.49 689.4 248.4 661.63 119.69 635.04 -37.74 611.57 -147.79 588.1 -155.77 568.85 -64.98 552.36 82.94 534.05 223.95 514.98 306.27 491.62 307.8 461.65 238.77 421.97 135.63 369.59 27.34 307.71 -44.47 232.79 -65.69 148.22 -38.83 64.72 27.95 -15.02 114 -79.56 213.05 -118.51 304.15 -125.49 379.21 -95.26 446.73 -35.32 497.46 49.6 535.21 143.96 569.12 223.47 596.61 275.23 620.08 284.58 643.56 245.34 661.9 170.61 672.26 79.24 678.79 -14.5 670.76 -87.12 643.92 -126.61 609.54 -131.3 557.1 -99.09 494.22 -39.06 444.34 41.31 411.24 129.28 415.13 213.95 467.09 293.52 566.74 358.98 699.46 409.26 827.04 447.69 917.15 474.09 932.84 492.77 867.75 504.81 740.11 515.28 601.23 527.93 519.48 538.97 532.18 555.45 642.19 578.92Q642.25 578.93 642.25 578.93" opacity="0.17"></path><path d="M607.57 626.85C749.24 647.98 869.31 668.23 924.21 686.29 899.79 702.85 805.5 714.45 677.57 718.41 550.95 717.6 462.32 705.79 426.8 681.47 445.39 651.82 503.09 611.03 576.88 562.53 657.51 518.14 720.02 476.79 756.7 446.92 772.95 438.77 764.4 454.01 739.51 496.23 702.54 563.05 661.14 648.95 622.74 742.86 581.89 830 549.39 897.18 528.27 930.47 507.15 924.26 498.39 878.96 499.4 805.18 497.96 714.87 500.94 622.65 501.29 541.7 489.58 479.32 463.34 441.77 414.53 428.66 345.29 439.2 252.45 466.04 144.13 501.33 42.66 545.37 -40.08 586.44 -80.67 619.71 -67.15 650.63 2.53 670.27 113.66 678.74 226.11 683.4 308.38 679.02 324.65 667.55 261.59 654.72 137.24 637.24 -4.42 616.12 -107.12 595 -128.54 571.22 -66.42 544.22 54.6 515.85 190.6 481.8 298.13 440.54 351.65 395.45 341.84 341.04 283.67 277.56 192.72 211.73 102.12 140.33 33.57 68.6 -8.95 5.62 -14.09 -46.27 10.97 -78.8 60.02 -87.7 122.17 -69.11 185.79 -22.22 254.61 43.24 314.89 123.42 362.8 205.58 410.34 271.22 445.17 312.25 466.3 318.48 487.42 285.2 493.83 222.31 486.14 143.32 478.06 57.56 456.22 -16.31 424 -67.65 397 -94.4 369.64 -90.7 353.14 -60.55 360.64 -8.69 396.11 57.69 466.32 129.78 562.56 205.96 678.2 277.08 791.15 339.29 871.32 396.18 900.07 442.77 862.03 480.19 769.99 512.84 646.01 539.67 533.14 562.95 479.17 584.73 504.87 605.73 607.57 626.85Q607.57 626.85 607.57 626.85" opacity="0.14"></path><path d="M574.24 574C700.03 592.78 812.71 605.44 879.32 611.68 886.1 617.09 831.21 614.68 734.48 603.78 617.77 591.02 510.31 569.26 431.91 539.46 390.15 510.14 387.62 476.46 414.49 442.67 465.81 417.91 523.7 401.4 576.17 398.78 626.55 415.02 660.92 450.55 678.83 505.67 689.25 576.01 686.97 657.04 676.12 739.72 662.61 813.31 645.4 868.83 626.62 896.59 607.84 893.03 588.39 857.9 566.49 798.41 541.92 722.55 510.04 640.39 467.08 562.04 416.62 492.99 351.33 440.07 272.01 405.37 190.6 388.98 105.75 388.67 29.83 399.91 -21.65 422.74 -41.39 449.29 -19.18 474.81 39.66 503.28 130.28 525.92 233.23 540.75 316.2 554.93 360.4 560.67 346.37 557.87 272.52 554.54 156.03 543.51 30.24 524.74 -64.74 505.96 -97.1 480.32 -61.69 448.24 28.58 415.62 146.78 375.72 260.57 329 347.87 281.62 390.59 228.07 388.35 170.66 345.62 116.19 280.08 62.69 209.84 15.24 139.31 -20.6 87.1 -42.55 57.29 -45.72 44.08 -30.57 50.9 5.5 71.02 60.79 100.81 125.38 134.7 196.85 166.7 265.47 200.85 317.71 228.61 349.03 247.39 352.59 266.18 324.83 275.08 273.11 276.35 206.77 279.76 131.34 280.03 61 282.78 4.42 295.19 -36.94 319.29 -55.63 361.43 -52.31 420.18 -30.13 499.33 8.62 594.48 58 689.33 116.4 777.14 177.03 839.43 235.3 861.24 294.04 835.38 346.73 761.86 392.02 661.83 435.46 554.32 472.03 471.27 502.03 443.08 531.21 479.22 555.21 574.18 573.99Q574.24 574 574.24 574" opacity="0.34"></path><path d="M540.18 443.62C756.71 476.48 857.74 477.82 778.88 451.85 588.38 428.23 417.75 388.72 341.66 356.65 358.69 363.23 422.73 416.55 473.75 525.09 527.25 663.36 538.37 795.64 505.51 862.58 472.65 835.94 398.92 726.64 288.47 588.47 180.5 460.03 65.18 376.76 5.08 341.98 105.99 360.56 337.88 411.34 64.18 377.73 -63.1 344.87 13.62 283.76 205.86 204.08 406.99 92.69 227.12 21.31 143.31 149.88 126.58 263.96 144.49 359.94 177.35 386.58 210.21 319.64 254.92 200.68 328.59 86.5 423.87 2.04 566.12 -16.41 721.01 20.06 813.14 95.21 794.99 186 644.45 266.57 476.31 349.49 412.89 410.76 540.18 443.62Q540.18 443.62 540.18 443.62" opacity="0.43"></path><path d="M506.25 293.89C694.13 322.06 811.57 326.72 797.9 315.45 674.54 311.15 512.05 306.33 383.89 318.63 304.61 361.33 282.56 440.01 284.52 551.06 305.39 670.73 310.18 776.24 282.02 828.58 253.85 811.51 195.4 729.59 125.71 617.09 74.93 497.79 53.03 400.01 95.39 335.39 252.94 291.83 350.56 273.5 98.25 240.61 -22.64 212.44 7.13 168.23 147.08 118.38 320.97 77.12 441.16 47.33 481.52 46.89 453.06 74.59 395.89 142.48 352.71 241.13 306.4 332.98 295.31 403.5 323.47 420.59 351.62 368.26 416.37 274.17 511.49 175.14 654.05 60.32 721.44 79.13 523.06 156.64 403.73 216.71 385.33 265.72 506.19 293.88Q506.25 293.89 506.25 293.89" opacity="0.91"></path><path d="M472.25 191.31C629.68 214.78 749.04 229.6 783.62 241.3 734.68 259.64 626.13 286.9 507.53 331.76 391.64 394.32 308.8 479.79 258.06 579.62 221.38 675.69 196.47 755.35 173 794.58 149.53 785.23 129.72 728.1 125.72 643.64 135.78 544.99 181.99 451.44 267.12 376.17 354.95 314.42 438.61 271.52 470.34 241.88 418.55 218.86 289.68 197.9 132.25 174.43 22.2 150.95 15.57 127.2 98.65 109.54 234.97 98.5 369.26 104.77 463.93 135.75 519.32 180.26 535.07 248.9 535.22 330.35 521.77 397.6 520.4 445.21 543.87 454.59 567.33 415.36 613.41 345.23 667.55 266.35 708.08 183.72 728.98 123.14 704.37 91.35 640.46 77.25 531.08 86.62 411.96 108.95 346.07 137.93 362.18 167.83 472.19 191.3Q472.25 191.31 472.25 191.31" opacity="0.87"></path><path d="M437.94 181.51C563.7 200.29 672.16 223.51 733.19 252.52 744.7 285.33 705.04 329.96 637.86 387.57 551.21 451.72 469.08 527.59 405.82 606.5 344.59 676.89 303.44 732.76 284.66 760.53 265.88 756.99 271.26 721.09 299.94 664.07 330.66 592.48 383.48 517.38 445.52 449.55 488.09 384.52 507.84 331.44 482.57 291.72 407.77 255.04 291.7 227.32 165.94 208.54 71.08 189.76 40.82 181.71 73.34 185.84 153.82 193.03 256.77 216.8 353.19 257.22 442.82 300.44 507.73 355.62 549.61 413.45 582.71 456.7 605.85 484.99 624.63 488.53 643.41 460.76 656.04 412.5 655.49 355.88 646.15 290.73 610.55 234.78 545.52 195.24 473.72 162.24 390.68 146.91 323.96 146.65 305.21 150.17 343.08 162.73 437.94 181.51Q437.94 181.51 437.94 181.51" opacity="0.68"></path><path d="M404.25 268.98C592.13 297.15 700.55 368.01 695.86 468.1 622.97 568.73 536.16 674.24 508 726.58 479.83 709.51 515.64 626.76 551.61 533.6 519.39 432.15 388.13 356.07 200.25 327.9 79.34 299.73 110.28 324.82 216.9 389.35 357.35 445.59 459.07 505.51 487.24 522.58 515.4 470.24 464.68 387.56 361.15 323.85 291.45 260.68 283.34 240.81 404.25 268.98Q404.25 268.98 404.25 268.98" opacity="0.85"></path><path d="M370.19 414.68C612.96 452.24 664.32 609.62 626.77 692.57 589.21 654.67 476.96 516.83 234.19 479.27 105.01 441.72 227.69 518.67 265.25 556.57 302.8 473.62 241.01 377.13 370.19 414.68Q370.19 414.68 370.19 414.68" opacity="0.69"></path></g></svg>