<svg xmlns="http://www.w3.org/2000/svg" version="1.1" xmlns:xlink="http://www.w3.org/1999/xlink" xmlns:svgjs="http://svgjs.dev/svgjs" viewBox="0 0 800 800"><defs><symbol id="bbburst-shape-1" viewBox="0 0 194 167"><path d="m97 0 96.129 166.5H.871L97 0Z"></path></symbol><symbol id="bbburst-shape-4" viewBox="0 0 149 143"><path d="M71.647 2.781c.898-2.764 4.808-2.764 5.706 0l15.445 47.534a3 3 0 0 0 2.853 2.073h49.98c2.906 0 4.115 3.719 1.764 5.427L106.96 87.193a2.999 2.999 0 0 0-1.09 3.354l15.445 47.534c.898 2.764-2.266 5.062-4.617 3.354l-40.435-29.378a3 3 0 0 0-3.526 0l-40.435 29.378c-2.351 1.708-5.515-.59-4.617-3.354L43.13 90.547a3 3 0 0 0-1.09-3.354L1.605 57.815c-2.35-1.708-1.142-5.427 1.764-5.427h49.98a3 3 0 0 0 2.853-2.073L71.647 2.781Z"></path></symbol><symbol id="bbburst-shape-6" viewBox="0 0 133 116"><path d="M59.7487 10.2513c-13.6683-13.66839-35.8291-13.66839-49.4974 0-13.66839 13.6683-13.66839 35.8291 0 49.4974l49.4974-49.4974ZM66.5 66.5 41.7513 91.2487 66.5 115.997l24.7487-24.7483L66.5 66.5Zm56.249-6.7513c13.668-13.6683 13.668-35.8291 0-49.4974-13.669-13.66839-35.8294-13.66839-49.4977 0l49.4977 49.4974Zm-112.4977 0 31.5 31.5 49.4974-49.4974-31.5-31.5-49.4974 49.4974Zm80.9974 31.5 31.5003-31.5-49.4977-49.4974-31.5 31.5 49.4974 49.4974Z"></path></symbol><symbol id="bbburst-shape-8" viewBox="0 0 87 168"><path d="m12 12 31.2546 18.0749c16.4102 9.4902 20.014 31.6325 7.4603 45.8369L36.3296 92.1884c-12.5684 14.2206-8.9394 36.3916 7.5068 45.8636L75 156" stroke-width="14" stroke-linecap="round" stroke-linejoin="round"></path></symbol><symbol id="bbburst-shape-10" viewBox="0 0 145 145"><circle cx="72.5" cy="72.5" r="61.5" fill="none" stroke-width="22"></circle></symbol><symbol id="bbburst-shape-14" viewBox="0 0 185 109"><path d="M168 16.5C168 58.1975 134.197 92 92.5 92 50.8025 92 17 58.1975 17 16.5" stroke-width="33" stroke-linecap="round"></path></symbol></defs><use xlink:href="#bbburst-shape-6" width="54.42513902316641" opacity="0.218301909065014" transform="matrix(0.780824258411774,0.6247507322730427,-0.6247507322730427,0.780824258411774,293.9590045539497,-37.58376674876342)" fill="#8000de"></use><use xlink:href="#bbburst-shape-1" width="32.76339624075138" opacity="0.6101204429688085" transform="matrix(0.8449829169828053,-0.5347932965242082,0.5347932965242082,0.8449829169828053,44.174698443576176,-49.0908491880362)" fill="#ac3bff"></use><use xlink:href="#bbburst-shape-8" width="31.469918353426387" opacity="0.5102380235533459" transform="matrix(0.7996055182895062,0.6005256157075818,-0.6005256157075818,0.7996055182895062,844.1642261902941,29.656122539636044)" fill="none" stroke="#4b0082"></use><use xlink:href="#bbburst-shape-8" width="24.46218595916542" opacity="0.6224365046599429" transform="matrix(0.894599271968254,-0.44686926790043424,0.44686926790043424,0.894599271968254,160.5084512179987,210.066734449181)" fill="none" stroke="#d396ff"></use><use xlink:href="#bbburst-shape-1" width="50.13041157625011" opacity="-0.06015363347705738" transform="matrix(0.8609354454289532,0.5087142211537339,-0.5087142211537339,0.8609354454289532,253.62375922773742,-303.2591184712803)" fill="#ac3bff"></use><use xlink:href="#bbburst-shape-10" width="44.220169777355885" opacity="0.2035224023460589" transform="matrix(0.9557403173953496,-0.2942115662325946,0.2942115662325946,0.9557403173953496,501.18846580313067,290.40254065947823)" fill="none" stroke="#4b0082"></use><use xlink:href="#bbburst-shape-4" width="45.76145429435148" opacity="0.37665711021148596" transform="matrix(0.8471111749629114,0.5314157103934317,-0.5314157103934317,0.8471111749629114,334.1753473763424,156.77555213465655)" fill="#ac3bff"></use><use xlink:href="#bbburst-shape-14" width="34.74082963475837" opacity="0.6817975252701758" transform="matrix(0.798569156754517,0.6019030668474614,-0.6019030668474614,0.798569156754517,525.9219392569528,171.7168296914433)" fill="none" stroke="#d396ff"></use><use xlink:href="#bbburst-shape-14" width="53.02953850577182" opacity="0.09109573085510936" transform="matrix(0.7272539310381174,0.6863685014550166,-0.6863685014550166,0.7272539310381174,310.3432259424073,-128.93454512547743)" fill="none" stroke="#8000de"></use><use xlink:href="#bbburst-shape-4" width="39.51548194732517" opacity="0.09702746391552863" transform="matrix(0.8846603377855391,0.46623608477806155,-0.46623608477806155,0.8846603377855391,921.8995784014096,-164.46736438334418)" fill="#bf68ff"></use><use xlink:href="#bbburst-shape-1" width="21.646864204982467" opacity="0.8198241464626648" transform="matrix(0.9994634574452134,0.032753583493417365,-0.032753583493417365,0.9994634574452134,456.30494655036523,60.34825450576648)" fill="#bf68ff"></use><use xlink:href="#bbburst-shape-4" width="26.951612427218755" opacity="0.7857071316475182" transform="matrix(0.7568360493741028,0.6536047692358133,-0.6536047692358133,0.7568360493741028,636.2187173460362,183.73294683424632)" fill="#bf68ff"></use><use xlink:href="#bbburst-shape-10" width="35.58083422475227" opacity="0.407774370472052" transform="matrix(0.9312950234866264,-0.36426580848199847,0.36426580848199847,0.9312950234866264,9.178590537443256,-103.11181384705708)" fill="none" stroke="#8000de"></use><use xlink:href="#bbburst-shape-4" width="33.86754781618957" opacity="0.6571058333675873" transform="matrix(0.7455303476488631,-0.6664716803695152,0.6664716803695152,0.7455303476488631,262.37855347416365,51.72273898767389)" fill="#bf68ff"></use><use xlink:href="#bbburst-shape-4" width="39.911881116232585" opacity="0.3895952962165915" transform="matrix(0.8426503421832077,-0.5384611414192513,0.5384611414192513,0.8426503421832077,441.3054440116922,99.3184817690539)" fill="#8000de"></use><use xlink:href="#bbburst-shape-10" width="27.325140870965868" opacity="0.6734477635214284" transform="matrix(0.8871566404678878,-0.46146841199992333,0.46146841199992333,0.8871566404678878,315.16914197311286,146.71718566742334)" fill="none" stroke="#ac3bff"></use><use xlink:href="#bbburst-shape-8" width="58.83085743902103" opacity="0.13217948861227502" transform="matrix(0.9957013646613004,-0.09262177072170406,0.09262177072170406,0.9957013646613004,-17.600489910743214,175.08900416068036)" fill="none" stroke="#d396ff"></use><use xlink:href="#bbburst-shape-4" width="31.5546321417295" opacity="0.6030154647662022" transform="matrix(0.8136265018863265,-0.5813879216394332,0.5813879216394332,0.8136265018863265,-15.363995321319749,138.6745842203182)" fill="#bf68ff"></use><use xlink:href="#bbburst-shape-8" width="38.649410550226285" opacity="0.5633456326822079" transform="matrix(0.751990492070236,0.6591739526376662,-0.6591739526376662,0.751990492070236,456.2580073354681,48.94825320891795)" fill="none" stroke="#d396ff"></use><use xlink:href="#bbburst-shape-6" width="51.32023316408504" opacity="-0.05959232451710661" transform="matrix(0.9587156158760174,0.28436660822865395,-0.28436660822865395,0.9587156158760174,820.6893387490826,351.9022146773955)" fill="#d396ff"></use><use xlink:href="#bbburst-shape-6" width="32.24807390135202" opacity="0.19550224127639715" transform="matrix(0.8854052632293699,-0.46481987892702087,0.46481987892702087,0.8854052632293699,558.0118369337973,0.9620949764483839)" fill="#d396ff"></use><use xlink:href="#bbburst-shape-10" width="42.831152135248324" opacity="-0.047203970466749956" transform="matrix(0.8531857613354211,-0.5216071861607142,0.5216071861607142,0.8531857613354211,-162.37793506852523,400.8539435559523)" fill="none" stroke="#ac3bff"></use><use xlink:href="#bbburst-shape-4" width="26.540150759604348" opacity="0.9187338766963361" transform="matrix(0.9999416491653708,-0.010802697090938332,0.010802697090938332,0.9999416491653708,370.6547799135186,34.81976420980061)" fill="#8000de"></use><use xlink:href="#bbburst-shape-6" width="35.91198502658672" opacity="0.20270805922289026" transform="matrix(0.9582423142960338,-0.28595745678786055,0.28595745678786055,0.9582423142960338,-89.89803018365765,40.24357693202302)" fill="#8000de"></use><use xlink:href="#bbburst-shape-8" width="40.21452681647275" opacity="0.3395653437596394" transform="matrix(0.9511991526419011,-0.3085776596147708,0.3085776596147708,0.9511991526419011,397.3280740970408,-236.4912793783534)" fill="none" stroke="#d396ff"></use><use xlink:href="#bbburst-shape-4" width="31.89494862014019" opacity="0.19584457581157577" transform="matrix(0.994724443239998,-0.10258304938378429,0.10258304938378429,0.994724443239998,695.757070021687,84.93745853556192)" fill="#8000de"></use><use xlink:href="#bbburst-shape-4" width="43.26763925214596" opacity="0.2262596549808762" transform="matrix(0.9866493380260437,0.1628590917719049,-0.1628590917719049,0.9866493380260437,193.83405146779543,244.2447568413666)" fill="#bf68ff"></use><use xlink:href="#bbburst-shape-10" width="22.57900401146056" opacity="0.6943138602113095" transform="matrix(0.9217216057971765,0.3878521385872125,-0.3878521385872125,0.9217216057971765,636.639720175922,-75.41938855339686)" fill="none" stroke="#4b0082"></use><use xlink:href="#bbburst-shape-10" width="42.210144100072434" opacity="0.3192358674253213" transform="matrix(0.9956064483548697,-0.09363653130163606,0.09363653130163606,0.9956064483548697,627.0455412019509,-107.30324151380847)" fill="none" stroke="#4b0082"></use><use xlink:href="#bbburst-shape-14" width="33.36928199331951" opacity="0.5337674364376233" transform="matrix(0.7379361431178452,0.6748705421637242,-0.6748705421637242,0.7379361431178452,765.3865170219574,-86.40465221828518)" fill="none" stroke="#8000de"></use><use xlink:href="#bbburst-shape-14" width="33.877269364181586" opacity="0.45172359147470453" transform="matrix(0.7977209347981589,-0.6030267906028317,0.6030267906028317,0.7977209347981589,98.31284600648343,333.37057013125934)" fill="none" stroke="#d396ff"></use><use xlink:href="#bbburst-shape-8" width="31.693275968280663" opacity="0.3152196695318863" transform="matrix(0.9769046237106508,-0.21367582028098478,0.21367582028098478,0.9769046237106508,176.180256806001,295.2200225205895)" fill="none" stroke="#ac3bff"></use><use xlink:href="#bbburst-shape-4" width="35.15780270296549" opacity="0.09243739535823059" transform="matrix(0.9723257541983785,-0.2336292527115436,0.2336292527115436,0.9723257541983785,639.1977586285459,226.10802922244778)" fill="#ac3bff"></use><use xlink:href="#bbburst-shape-6" width="49.87964070895625" opacity="0.08962741588150125" transform="matrix(0.9482003332890476,-0.31767298901628244,0.31767298901628244,0.9482003332890476,469.3814207946276,-316.87723449041744)" fill="#d396ff"></use><use xlink:href="#bbburst-shape-4" width="33.77586727265241" opacity="0.45716278617127637" transform="matrix(0.7383330487610564,0.6744362898800771,-0.6744362898800771,0.7383330487610564,698.6082305543562,334.0556511100185)" fill="#ac3bff"></use><use xlink:href="#bbburst-shape-4" width="37.79945017856924" opacity="0.24757328316202565" transform="matrix(0.9994163013913905,-0.03416220884476536,0.03416220884476536,0.9994163013913905,615.708749443819,-229.3275628046752)" fill="#8000de"></use><use xlink:href="#bbburst-shape-8" width="46.495207972103955" opacity="0.47620270012763655" transform="matrix(0.9768364740567128,-0.21398715604551813,0.21398715604551813,0.9768364740567128,440.14128166107673,197.33198691877868)" fill="none" stroke="#ac3bff"></use><use xlink:href="#bbburst-shape-8" width="37.96165903608072" opacity="0.6462600240872152" transform="matrix(0.7253825104230145,-0.688345998442938,0.688345998442938,0.7253825104230145,158.7557833483076,274.72938180191414)" fill="none" stroke="#8000de"></use><use xlink:href="#bbburst-shape-8" width="27.80207621296308" opacity="0.6691311538918324" transform="matrix(0.8614460197145698,0.5078491460246094,-0.5078491460246094,0.8614460197145698,739.0176652576548,65.9122068777043)" fill="none" stroke="#d396ff"></use><use xlink:href="#bbburst-shape-4" width="33.25106844149454" opacity="0.7604898280680139" transform="matrix(0.9801057732800719,-0.19847587556948157,0.19847587556948157,0.9801057732800719,257.5626798300053,-85.82173189658431)" fill="#bf68ff"></use><use xlink:href="#bbburst-shape-10" width="29.85048936253154" opacity="0.11401858635448936" transform="matrix(0.9885449826042157,0.1509265297024705,-0.1509265297024705,0.9885449826042157,615.8314999646292,362.8593020374216)" fill="none" stroke="#ac3bff"></use><use xlink:href="#bbburst-shape-14" width="30.4150221638793" opacity="0.3990833659136359" transform="matrix(0.7530008497915338,0.6580195439447281,-0.6580195439447281,0.7530008497915338,381.3799311687378,82.99119095694829)" fill="none" stroke="#ac3bff"></use><use xlink:href="#bbburst-shape-8" width="40.50756267804712" opacity="0.4572580615486145" transform="matrix(0.979352667378523,0.20215922659768,-0.20215922659768,0.979352667378523,490.0919805925955,-238.33395932202777)" fill="none" stroke="#ac3bff"></use><use xlink:href="#bbburst-shape-4" width="48.622076338122554" opacity="0.1924643050000744" transform="matrix(0.707732308055217,0.706480700468764,-0.706480700468764,0.707732308055217,426.3313294870587,-173.95328488416646)" fill="#bf68ff"></use><use xlink:href="#bbburst-shape-4" width="43.619066349114725" opacity="0.34073810177993225" transform="matrix(0.8448344747673472,0.5350277658632125,-0.5350277658632125,0.8448344747673472,851.0283829232278,201.2618522573007)" fill="#ac3bff"></use><use xlink:href="#bbburst-shape-6" width="24.388889155737868" opacity="0.8413027638348465" transform="matrix(0.8573736193550131,0.514694547119051,-0.514694547119051,0.8573736193550131,622.1548124128192,-15.44727886298125)" fill="#ac3bff"></use><use xlink:href="#bbburst-shape-4" width="31.372160719749857" opacity="0.13863728444047851" transform="matrix(0.9364260620952651,0.3508649743544581,-0.3508649743544581,0.9364260620952651,368.7907308405651,-334.5049472113527)" fill="#ac3bff"></use><use xlink:href="#bbburst-shape-4" width="30.16193676244086" opacity="0.5788802695237572" transform="matrix(0.7480065788785042,-0.6636913122487562,0.6636913122487562,0.7480065788785042,68.84032047235024,-70.69467826643213)" fill="#ac3bff"></use><use xlink:href="#bbburst-shape-8" width="43.123433442068254" opacity="0.4101442637805218" transform="matrix(0.9322084638064231,0.36192178714146084,-0.36192178714146084,0.9322084638064231,366.3052028169003,-193.70529797425385)" fill="none" stroke="#d396ff"></use><use xlink:href="#bbburst-shape-1" width="56.3585847262333" opacity="-0.06091153467883559" transform="matrix(0.95347422799108,-0.30147453716162187,0.30147453716162187,0.95347422799108,592.7510254210664,-307.7775899830381)" fill="#8000de"></use><use xlink:href="#bbburst-shape-10" width="34.4240253225069" opacity="0.6774763687399397" transform="matrix(0.9688018951690767,-0.24783641362157716,0.24783641362157716,0.9688018951690767,308.3409926292717,-126.36719789802385)" fill="none" stroke="#ac3bff"></use><use xlink:href="#bbburst-shape-6" width="43.28170551880844" opacity="0.36752458660984166" transform="matrix(0.8957579054759702,-0.44454220809424033,0.44454220809424033,0.8957579054759702,121.35762723637774,-221.39566871059827)" fill="#ac3bff"></use><use xlink:href="#bbburst-shape-8" width="30.44021078797968" opacity="0.31473254101830506" transform="matrix(0.9991533367980104,-0.04114133645619127,0.04114133645619127,0.9991533367980104,484.642428182581,286.56097150624066)" fill="none" stroke="#d396ff"></use><use xlink:href="#bbburst-shape-8" width="27.291863933231824" opacity="0.8139994269034074" transform="matrix(0.9907119461459891,0.13597735018607643,-0.13597735018607643,0.9907119461459891,523.6228635454895,-10.709480087898044)" fill="none" stroke="#d396ff"></use><use xlink:href="#bbburst-shape-10" width="40.93105483808625" opacity="0.4717115066905263" transform="matrix(0.999998890666042,-0.0014895189443096188,0.0014895189443096188,0.999998890666042,569.3067991739888,-142.36093317954953)" fill="none" stroke="#8000de"></use><use xlink:href="#bbburst-shape-6" width="31.500535175018562" opacity="0.8105938632331238" transform="matrix(0.9462039398285281,-0.3235708643450012,0.3235708643450012,0.9462039398285281,176.2190968787263,57.47549588539391)" fill="#bf68ff"></use><use xlink:href="#bbburst-shape-4" width="45.78438986383291" opacity="0.47608362787990577" transform="matrix(0.9972149643314704,0.07458092861706803,-0.07458092861706803,0.9972149643314704,245.99199118536583,171.6691310213841)" fill="#4b0082"></use><use xlink:href="#bbburst-shape-8" width="32.040629575789374" opacity="0.7348830797263" transform="matrix(0.9989344205080143,0.04615217789354707,-0.04615217789354707,0.9989344205080143,288.65989108343064,-36.13471833454622)" fill="none" stroke="#8000de"></use><use xlink:href="#bbburst-shape-10" width="24.26416798417287" opacity="0.9441337978675922" transform="matrix(0.7779167928356856,-0.6283672997731828,0.6283672997731828,0.7779167928356856,163.9069193578979,91.73083254120178)" fill="none" stroke="#ac3bff"></use><use xlink:href="#bbburst-shape-4" width="30.960089253648576" opacity="0.1094156166493312" transform="matrix(0.978766133741923,-0.20498013425668385,0.20498013425668385,0.978766133741923,118.36203534461762,367.4618001178068)" fill="#bf68ff"></use><use xlink:href="#bbburst-shape-8" width="41.25741972731203" opacity="0.2171302695674534" transform="matrix(0.8947546582241772,0.44655806071118664,-0.44655806071118664,0.8947546582241772,555.2765836123795,385.14367751665816)" fill="none" stroke="#ac3bff"></use><use xlink:href="#bbburst-shape-4" width="51.66341897442213" opacity="0.2254839717331949" transform="matrix(0.8813313205660154,0.4724987866538531,-0.4724987866538531,0.8813313205660154,550.6808818042098,-312.8827123952685)" fill="#ac3bff"></use><use xlink:href="#bbburst-shape-14" width="31.84275592006758" opacity="0.892125941982534" transform="matrix(0.8830754866096361,-0.46923095054477637,0.46923095054477637,0.8830754866096361,159.59605925858452,24.936932107169355)" fill="none" stroke="#ac3bff"></use><use xlink:href="#bbburst-shape-14" width="40.175646550801765" opacity="0.1889218587297038" transform="matrix(0.7946926549640079,-0.6070120131811695,0.6070120131811695,0.7946926549640079,238.1377580905512,-257.53489099728483)" fill="none" stroke="#d396ff"></use><use xlink:href="#bbburst-shape-4" width="34.777335078447294" opacity="0.532546976196699" transform="matrix(0.9701697759448061,0.2424264957532583,-0.2424264957532583,0.9701697759448061,673.6523561071656,90.10926204252166)" fill="#bf68ff"></use></svg>