<svg id="visual" viewBox="0 0 960 540" width="960" height="540" xmlns="http://www.w3.org/2000/svg" xmlns:xlink="http://www.w3.org/1999/xlink" version="1.1"><rect x="0" y="0" width="960" height="540" fill="#111111"></rect><defs><linearGradient id="grad1_0" x1="43.8%" y1="100%" x2="100%" y2="0%"><stop offset="14.444444444444446%" stop-color="#6f59fc" stop-opacity="1"></stop><stop offset="85.55555555555554%" stop-color="#6f59fc" stop-opacity="1"></stop></linearGradient></defs><defs><linearGradient id="grad1_1" x1="43.8%" y1="100%" x2="100%" y2="0%"><stop offset="14.444444444444446%" stop-color="#6f59fc" stop-opacity="1"></stop><stop offset="85.55555555555554%" stop-color="#5d4ac7" stop-opacity="1"></stop></linearGradient></defs><defs><linearGradient id="grad1_2" x1="43.8%" y1="100%" x2="100%" y2="0%"><stop offset="14.444444444444446%" stop-color="#4b3b95" stop-opacity="1"></stop><stop offset="85.55555555555554%" stop-color="#5d4ac7" stop-opacity="1"></stop></linearGradient></defs><defs><linearGradient id="grad1_3" x1="43.8%" y1="100%" x2="100%" y2="0%"><stop offset="14.444444444444446%" stop-color="#4b3b95" stop-opacity="1"></stop><stop offset="85.55555555555554%" stop-color="#392d65" stop-opacity="1"></stop></linearGradient></defs><defs><linearGradient id="grad1_4" x1="43.8%" y1="100%" x2="100%" y2="0%"><stop offset="14.444444444444446%" stop-color="#261f39" stop-opacity="1"></stop><stop offset="85.55555555555554%" stop-color="#392d65" stop-opacity="1"></stop></linearGradient></defs><defs><linearGradient id="grad1_5" x1="43.8%" y1="100%" x2="100%" y2="0%"><stop offset="14.444444444444446%" stop-color="#261f39" stop-opacity="1"></stop><stop offset="85.55555555555554%" stop-color="#111111" stop-opacity="1"></stop></linearGradient></defs><defs><linearGradient id="grad2_0" x1="0%" y1="100%" x2="56.3%" y2="0%"><stop offset="14.444444444444446%" stop-color="#6f59fc" stop-opacity="1"></stop><stop offset="85.55555555555554%" stop-color="#6f59fc" stop-opacity="1"></stop></linearGradient></defs><defs><linearGradient id="grad2_1" x1="0%" y1="100%" x2="56.3%" y2="0%"><stop offset="14.444444444444446%" stop-color="#5d4ac7" stop-opacity="1"></stop><stop offset="85.55555555555554%" stop-color="#6f59fc" stop-opacity="1"></stop></linearGradient></defs><defs><linearGradient id="grad2_2" x1="0%" y1="100%" x2="56.3%" y2="0%"><stop offset="14.444444444444446%" stop-color="#5d4ac7" stop-opacity="1"></stop><stop offset="85.55555555555554%" stop-color="#4b3b95" stop-opacity="1"></stop></linearGradient></defs><defs><linearGradient id="grad2_3" x1="0%" y1="100%" x2="56.3%" y2="0%"><stop offset="14.444444444444446%" stop-color="#392d65" stop-opacity="1"></stop><stop offset="85.55555555555554%" stop-color="#4b3b95" stop-opacity="1"></stop></linearGradient></defs><defs><linearGradient id="grad2_4" x1="0%" y1="100%" x2="56.3%" y2="0%"><stop offset="14.444444444444446%" stop-color="#392d65" stop-opacity="1"></stop><stop offset="85.55555555555554%" stop-color="#261f39" stop-opacity="1"></stop></linearGradient></defs><defs><linearGradient id="grad2_5" x1="0%" y1="100%" x2="56.3%" y2="0%"><stop offset="14.444444444444446%" stop-color="#111111" stop-opacity="1"></stop><stop offset="85.55555555555554%" stop-color="#261f39" stop-opacity="1"></stop></linearGradient></defs><g transform="translate(960, 540)"><path d="M-459 0C-455.8 -40.5 -452.7 -80.9 -439.5 -117.8C-426.3 -154.6 -403.1 -187.7 -381.9 -220.5C-360.7 -253.3 -341.5 -285.6 -317.5 -317.5C-293.5 -349.4 -264.6 -380.8 -229.5 -397.5C-194.4 -414.2 -152.9 -416.2 -113.6 -424C-74.3 -431.8 -37.2 -445.4 0 -459L0 0Z" fill="#1c1925"></path><path d="M-382.5 0C-379.9 -33.7 -377.2 -67.5 -366.2 -98.1C-355.3 -128.8 -335.9 -156.5 -318.3 -183.8C-300.6 -211 -284.6 -238 -264.6 -264.6C-244.6 -291.1 -220.5 -317.3 -191.3 -331.3C-162 -345.2 -127.4 -346.9 -94.7 -353.4C-61.9 -359.9 -31 -371.2 0 -382.5L0 0Z" fill="#30264f"></path><path d="M-306 0C-303.9 -27 -301.8 -54 -293 -78.5C-284.2 -103.1 -268.7 -125.2 -254.6 -147C-240.5 -168.8 -227.7 -190.4 -211.7 -211.7C-195.6 -232.9 -176.4 -253.9 -153 -265C-129.6 -276.1 -101.9 -277.5 -75.7 -282.7C-49.5 -287.9 -24.8 -296.9 0 -306L0 0Z" fill="#42347c"></path><path d="M-229.5 0C-227.9 -20.2 -226.3 -40.5 -219.7 -58.9C-213.2 -77.3 -201.6 -93.9 -191 -110.3C-180.4 -126.6 -170.8 -142.8 -158.7 -158.7C-146.7 -174.7 -132.3 -190.4 -114.8 -198.8C-97.2 -207.1 -76.5 -208.1 -56.8 -212C-37.2 -215.9 -18.6 -222.7 0 -229.5L0 0Z" fill="#5443ae"></path><path d="M-153 0C-151.9 -13.5 -150.9 -27 -146.5 -39.3C-142.1 -51.5 -134.4 -62.6 -127.3 -73.5C-120.2 -84.4 -113.8 -95.2 -105.8 -105.8C-97.8 -116.5 -88.2 -126.9 -76.5 -132.5C-64.8 -138.1 -51 -138.7 -37.9 -141.3C-24.8 -143.9 -12.4 -148.5 0 -153L0 0Z" fill="#6651e1"></path><path d="M-76.5 0C-76 -6.7 -75.4 -13.5 -73.2 -19.6C-71.1 -25.8 -67.2 -31.3 -63.7 -36.8C-60.1 -42.2 -56.9 -47.6 -52.9 -52.9C-48.9 -58.2 -44.1 -63.5 -38.3 -66.3C-32.4 -69 -25.5 -69.4 -18.9 -70.7C-12.4 -72 -6.2 -74.2 0 -76.5L0 0Z" fill="#6f59fc"></path></g><g transform="translate(0, 0)"><path d="M459 0C448.1 38.6 437.3 77.1 425 113.9C412.7 150.6 399 185.6 382.8 221C366.5 256.4 347.7 292.2 321.7 321.7C295.8 351.2 262.7 374.4 228 394.9C193.3 415.4 157.1 433.1 118.8 443.4C80.5 453.6 40.3 456.3 0 459L0 0Z" fill="#1c1925"></path><path d="M382.5 0C373.5 32.1 364.4 64.3 354.2 94.9C343.9 125.5 332.5 154.7 319 184.2C305.4 213.7 289.7 243.5 268.1 268.1C246.5 292.7 218.9 312 190 329.1C161.1 346.1 130.9 360.9 99 369.5C67.1 378 33.6 380.2 0 382.5L0 0Z" fill="#30264f"></path><path d="M306 0C298.8 25.7 291.5 51.4 283.3 75.9C275.2 100.4 266 123.7 255.2 147.3C244.3 170.9 231.8 194.8 214.5 214.5C197.2 234.2 175.1 249.6 152 263.3C128.9 276.9 104.7 288.8 79.2 295.6C53.7 302.4 26.8 304.2 0 306L0 0Z" fill="#42347c"></path><path d="M229.5 0C224.1 19.3 218.6 38.6 212.5 56.9C206.4 75.3 199.5 92.8 191.4 110.5C183.3 128.2 173.8 146.1 160.9 160.9C147.9 175.6 131.3 187.2 114 197.5C96.7 207.7 78.5 216.6 59.4 221.7C40.3 226.8 20.1 228.1 0 229.5L0 0Z" fill="#5443ae"></path><path d="M153 0C149.4 12.9 145.8 25.7 141.7 38C137.6 50.2 133 61.9 127.6 73.7C122.2 85.5 115.9 97.4 107.2 107.2C98.6 117.1 87.6 124.8 76 131.6C64.4 138.5 52.4 144.4 39.6 147.8C26.8 151.2 13.4 152.1 0 153L0 0Z" fill="#6651e1"></path><path d="M76.5 0C74.7 6.4 72.9 12.9 70.8 19C68.8 25.1 66.5 30.9 63.8 36.8C61.1 42.7 57.9 48.7 53.6 53.6C49.3 58.5 43.8 62.4 38 65.8C32.2 69.2 26.2 72.2 19.8 73.9C13.4 75.6 6.7 76 0 76.5L0 0Z" fill="#6f59fc"></path></g></svg>