<svg xmlns="http://www.w3.org/2000/svg" version="1.1" xmlns:xlink="http://www.w3.org/1999/xlink" xmlns:svgjs="http://svgjs.dev/svgjs" viewBox="0 0 800 800" width="800" height="800"><g stroke-width="1" stroke="hsla(229, 26%, 61%, 1)" fill="none"><rect width="6.578947368421053" height="6.578947368421053" x="-3.2894736842105265" y="-3.2894736842105265" transform="rotate(45, 0, 0)"></rect><rect width="6.578947368421053" height="6.578947368421053" x="76.71052631578948" y="-3.2894736842105265" transform="rotate(45, 80, 0)"></rect><rect width="6.578947368421053" height="6.578947368421053" x="156.71052631578948" y="-3.2894736842105265" transform="rotate(45, 160, 0)"></rect><rect width="6.578947368421053" height="6.578947368421053" x="236.71052631578948" y="-3.2894736842105265" transform="rotate(45, 240, 0)"></rect><rect width="6.578947368421053" height="6.578947368421053" x="316.7105263157895" y="-3.2894736842105265" transform="rotate(45, 320, 0)"></rect><rect width="6.578947368421053" height="6.578947368421053" x="396.7105263157895" y="-3.2894736842105265" transform="rotate(45, 400, 0)"></rect><rect width="6.578947368421053" height="6.578947368421053" x="476.7105263157895" y="-3.2894736842105265" transform="rotate(45, 480, 0)"></rect><rect width="6.578947368421053" height="6.578947368421053" x="556.7105263157895" y="-3.2894736842105265" transform="rotate(45, 560, 0)"></rect><rect width="6.578947368421053" height="6.578947368421053" x="636.7105263157895" y="-3.2894736842105265" transform="rotate(45, 640, 0)"></rect><rect width="6.578947368421053" height="6.578947368421053" x="716.7105263157895" y="-3.2894736842105265" transform="rotate(45, 720, 0)"></rect><rect width="6.578947368421053" height="6.578947368421053" x="796.7105263157895" y="-3.2894736842105265" transform="rotate(45, 800, 0)"></rect><rect width="6.578947368421053" height="6.578947368421053" x="-3.2894736842105265" y="76.71052631578948" transform="rotate(45, 0, 80)"></rect><rect width="6.578947368421053" height="6.578947368421053" x="76.71052631578948" y="76.71052631578948" transform="rotate(45, 80, 80)"></rect><rect width="6.578947368421053" height="6.578947368421053" x="156.71052631578948" y="76.71052631578948" fill="hsla(229, 26%, 61%, 1)" stroke="none" transform="rotate(45, 160, 80)"></rect><rect width="6.578947368421053" height="6.578947368421053" x="236.71052631578948" y="76.71052631578948" transform="rotate(45, 240, 80)"></rect><rect width="6.578947368421053" height="6.578947368421053" x="316.7105263157895" y="76.71052631578948" fill="hsla(229, 26%, 61%, 1)" stroke="none" transform="rotate(45, 320, 80)"></rect><rect width="6.578947368421053" height="6.578947368421053" x="396.7105263157895" y="76.71052631578948" transform="rotate(45, 400, 80)"></rect><rect width="6.578947368421053" height="6.578947368421053" x="476.7105263157895" y="76.71052631578948" transform="rotate(45, 480, 80)"></rect><rect width="6.578947368421053" height="6.578947368421053" x="556.7105263157895" y="76.71052631578948" fill="hsla(229, 26%, 61%, 1)" stroke="none" transform="rotate(45, 560, 80)"></rect><rect width="6.578947368421053" height="6.578947368421053" x="636.7105263157895" y="76.71052631578948" fill="hsla(229, 26%, 61%, 1)" stroke="none" transform="rotate(45, 640, 80)"></rect><rect width="6.578947368421053" height="6.578947368421053" x="716.7105263157895" y="76.71052631578948" transform="rotate(45, 720, 80)"></rect><rect width="6.578947368421053" height="6.578947368421053" x="796.7105263157895" y="76.71052631578948" transform="rotate(45, 800, 80)"></rect><rect width="6.578947368421053" height="6.578947368421053" x="-3.2894736842105265" y="156.71052631578948" transform="rotate(45, 0, 160)"></rect><rect width="6.578947368421053" height="6.578947368421053" x="76.71052631578948" y="156.71052631578948" transform="rotate(45, 80, 160)"></rect><rect width="6.578947368421053" height="6.578947368421053" x="156.71052631578948" y="156.71052631578948" transform="rotate(45, 160, 160)"></rect><rect width="6.578947368421053" height="6.578947368421053" x="236.71052631578948" y="156.71052631578948" fill="hsla(229, 26%, 61%, 1)" stroke="none" transform="rotate(45, 240, 160)"></rect><rect width="6.578947368421053" height="6.578947368421053" x="316.7105263157895" y="156.71052631578948" fill="hsla(229, 26%, 61%, 1)" stroke="none" transform="rotate(45, 320, 160)"></rect><rect width="6.578947368421053" height="6.578947368421053" x="396.7105263157895" y="156.71052631578948" transform="rotate(45, 400, 160)"></rect><rect width="6.578947368421053" height="6.578947368421053" x="476.7105263157895" y="156.71052631578948" transform="rotate(45, 480, 160)"></rect><rect width="6.578947368421053" height="6.578947368421053" x="556.7105263157895" y="156.71052631578948" fill="hsla(229, 26%, 61%, 1)" stroke="none" transform="rotate(45, 560, 160)"></rect><rect width="6.578947368421053" height="6.578947368421053" x="636.7105263157895" y="156.71052631578948" transform="rotate(45, 640, 160)"></rect><rect width="6.578947368421053" height="6.578947368421053" x="716.7105263157895" y="156.71052631578948" transform="rotate(45, 720, 160)"></rect><rect width="6.578947368421053" height="6.578947368421053" x="796.7105263157895" y="156.71052631578948" transform="rotate(45, 800, 160)"></rect><rect width="6.578947368421053" height="6.578947368421053" x="-3.2894736842105265" y="236.71052631578948" transform="rotate(45, 0, 240)"></rect><rect width="6.578947368421053" height="6.578947368421053" x="76.71052631578948" y="236.71052631578948" fill="hsla(229, 26%, 61%, 1)" stroke="none" transform="rotate(45, 80, 240)"></rect><rect width="6.578947368421053" height="6.578947368421053" x="156.71052631578948" y="236.71052631578948" transform="rotate(45, 160, 240)"></rect><rect width="6.578947368421053" height="6.578947368421053" x="236.71052631578948" y="236.71052631578948" fill="hsla(229, 26%, 61%, 1)" stroke="none" transform="rotate(45, 240, 240)"></rect><rect width="6.578947368421053" height="6.578947368421053" x="316.7105263157895" y="236.71052631578948" transform="rotate(45, 320, 240)"></rect><rect width="6.578947368421053" height="6.578947368421053" x="396.7105263157895" y="236.71052631578948" transform="rotate(45, 400, 240)"></rect><rect width="6.578947368421053" height="6.578947368421053" x="476.7105263157895" y="236.71052631578948" transform="rotate(45, 480, 240)"></rect><rect width="6.578947368421053" height="6.578947368421053" x="556.7105263157895" y="236.71052631578948" fill="hsla(229, 26%, 61%, 1)" stroke="none" transform="rotate(45, 560, 240)"></rect><rect width="6.578947368421053" height="6.578947368421053" x="636.7105263157895" y="236.71052631578948" transform="rotate(45, 640, 240)"></rect><rect width="6.578947368421053" height="6.578947368421053" x="716.7105263157895" y="236.71052631578948" transform="rotate(45, 720, 240)"></rect><rect width="6.578947368421053" height="6.578947368421053" x="796.7105263157895" y="236.71052631578948" transform="rotate(45, 800, 240)"></rect><rect width="6.578947368421053" height="6.578947368421053" x="-3.2894736842105265" y="316.7105263157895" transform="rotate(45, 0, 320)"></rect><rect width="6.578947368421053" height="6.578947368421053" x="76.71052631578948" y="316.7105263157895" transform="rotate(45, 80, 320)"></rect><rect width="6.578947368421053" height="6.578947368421053" x="156.71052631578948" y="316.7105263157895" transform="rotate(45, 160, 320)"></rect><rect width="6.578947368421053" height="6.578947368421053" x="236.71052631578948" y="316.7105263157895" fill="hsla(229, 26%, 61%, 1)" stroke="none" transform="rotate(45, 240, 320)"></rect><rect width="6.578947368421053" height="6.578947368421053" x="316.7105263157895" y="316.7105263157895" transform="rotate(45, 320, 320)"></rect><rect width="6.578947368421053" height="6.578947368421053" x="396.7105263157895" y="316.7105263157895" transform="rotate(45, 400, 320)"></rect><rect width="6.578947368421053" height="6.578947368421053" x="476.7105263157895" y="316.7105263157895" transform="rotate(45, 480, 320)"></rect><rect width="6.578947368421053" height="6.578947368421053" x="556.7105263157895" y="316.7105263157895" transform="rotate(45, 560, 320)"></rect><rect width="6.578947368421053" height="6.578947368421053" x="636.7105263157895" y="316.7105263157895" transform="rotate(45, 640, 320)"></rect><rect width="6.578947368421053" height="6.578947368421053" x="716.7105263157895" y="316.7105263157895" fill="hsla(229, 26%, 61%, 1)" stroke="none" transform="rotate(45, 720, 320)"></rect><rect width="6.578947368421053" height="6.578947368421053" x="796.7105263157895" y="316.7105263157895" transform="rotate(45, 800, 320)"></rect><rect width="6.578947368421053" height="6.578947368421053" x="-3.2894736842105265" y="396.7105263157895" transform="rotate(45, 0, 400)"></rect><rect width="6.578947368421053" height="6.578947368421053" x="76.71052631578948" y="396.7105263157895" transform="rotate(45, 80, 400)"></rect><rect width="6.578947368421053" height="6.578947368421053" x="156.71052631578948" y="396.7105263157895" fill="hsla(229, 26%, 61%, 1)" stroke="none" transform="rotate(45, 160, 400)"></rect><rect width="6.578947368421053" height="6.578947368421053" x="236.71052631578948" y="396.7105263157895" transform="rotate(45, 240, 400)"></rect><rect width="6.578947368421053" height="6.578947368421053" x="316.7105263157895" y="396.7105263157895" transform="rotate(45, 320, 400)"></rect><rect width="6.578947368421053" height="6.578947368421053" x="396.7105263157895" y="396.7105263157895" transform="rotate(45, 400, 400)"></rect><rect width="6.578947368421053" height="6.578947368421053" x="476.7105263157895" y="396.7105263157895" transform="rotate(45, 480, 400)"></rect><rect width="6.578947368421053" height="6.578947368421053" x="556.7105263157895" y="396.7105263157895" transform="rotate(45, 560, 400)"></rect><rect width="6.578947368421053" height="6.578947368421053" x="636.7105263157895" y="396.7105263157895" transform="rotate(45, 640, 400)"></rect><rect width="6.578947368421053" height="6.578947368421053" x="716.7105263157895" y="396.7105263157895" fill="hsla(229, 26%, 61%, 1)" stroke="none" transform="rotate(45, 720, 400)"></rect><rect width="6.578947368421053" height="6.578947368421053" x="796.7105263157895" y="396.7105263157895" transform="rotate(45, 800, 400)"></rect><rect width="6.578947368421053" height="6.578947368421053" x="-3.2894736842105265" y="476.7105263157895" transform="rotate(45, 0, 480)"></rect><rect width="6.578947368421053" height="6.578947368421053" x="76.71052631578948" y="476.7105263157895" transform="rotate(45, 80, 480)"></rect><rect width="6.578947368421053" height="6.578947368421053" x="156.71052631578948" y="476.7105263157895" transform="rotate(45, 160, 480)"></rect><rect width="6.578947368421053" height="6.578947368421053" x="236.71052631578948" y="476.7105263157895" transform="rotate(45, 240, 480)"></rect><rect width="6.578947368421053" height="6.578947368421053" x="316.7105263157895" y="476.7105263157895" transform="rotate(45, 320, 480)"></rect><rect width="6.578947368421053" height="6.578947368421053" x="396.7105263157895" y="476.7105263157895" transform="rotate(45, 400, 480)"></rect><rect width="6.578947368421053" height="6.578947368421053" x="476.7105263157895" y="476.7105263157895" transform="rotate(45, 480, 480)"></rect><rect width="6.578947368421053" height="6.578947368421053" x="556.7105263157895" y="476.7105263157895" fill="hsla(229, 26%, 61%, 1)" stroke="none" transform="rotate(45, 560, 480)"></rect><rect width="6.578947368421053" height="6.578947368421053" x="636.7105263157895" y="476.7105263157895" transform="rotate(45, 640, 480)"></rect><rect width="6.578947368421053" height="6.578947368421053" x="716.7105263157895" y="476.7105263157895" transform="rotate(45, 720, 480)"></rect><rect width="6.578947368421053" height="6.578947368421053" x="796.7105263157895" y="476.7105263157895" transform="rotate(45, 800, 480)"></rect><rect width="6.578947368421053" height="6.578947368421053" x="-3.2894736842105265" y="556.7105263157895" transform="rotate(45, 0, 560)"></rect><rect width="6.578947368421053" height="6.578947368421053" x="76.71052631578948" y="556.7105263157895" transform="rotate(45, 80, 560)"></rect><rect width="6.578947368421053" height="6.578947368421053" x="156.71052631578948" y="556.7105263157895" transform="rotate(45, 160, 560)"></rect><rect width="6.578947368421053" height="6.578947368421053" x="236.71052631578948" y="556.7105263157895" transform="rotate(45, 240, 560)"></rect><rect width="6.578947368421053" height="6.578947368421053" x="316.7105263157895" y="556.7105263157895" fill="hsla(229, 26%, 61%, 1)" stroke="none" transform="rotate(45, 320, 560)"></rect><rect width="6.578947368421053" height="6.578947368421053" x="396.7105263157895" y="556.7105263157895" transform="rotate(45, 400, 560)"></rect><rect width="6.578947368421053" height="6.578947368421053" x="476.7105263157895" y="556.7105263157895" transform="rotate(45, 480, 560)"></rect><rect width="6.578947368421053" height="6.578947368421053" x="556.7105263157895" y="556.7105263157895" transform="rotate(45, 560, 560)"></rect><rect width="6.578947368421053" height="6.578947368421053" x="636.7105263157895" y="556.7105263157895" transform="rotate(45, 640, 560)"></rect><rect width="6.578947368421053" height="6.578947368421053" x="716.7105263157895" y="556.7105263157895" transform="rotate(45, 720, 560)"></rect><rect width="6.578947368421053" height="6.578947368421053" x="796.7105263157895" y="556.7105263157895" transform="rotate(45, 800, 560)"></rect><rect width="6.578947368421053" height="6.578947368421053" x="-3.2894736842105265" y="636.7105263157895" transform="rotate(45, 0, 640)"></rect><rect width="6.578947368421053" height="6.578947368421053" x="76.71052631578948" y="636.7105263157895" transform="rotate(45, 80, 640)"></rect><rect width="6.578947368421053" height="6.578947368421053" x="156.71052631578948" y="636.7105263157895" transform="rotate(45, 160, 640)"></rect><rect width="6.578947368421053" height="6.578947368421053" x="236.71052631578948" y="636.7105263157895" transform="rotate(45, 240, 640)"></rect><rect width="6.578947368421053" height="6.578947368421053" x="316.7105263157895" y="636.7105263157895" transform="rotate(45, 320, 640)"></rect><rect width="6.578947368421053" height="6.578947368421053" x="396.7105263157895" y="636.7105263157895" transform="rotate(45, 400, 640)"></rect><rect width="6.578947368421053" height="6.578947368421053" x="476.7105263157895" y="636.7105263157895" transform="rotate(45, 480, 640)"></rect><rect width="6.578947368421053" height="6.578947368421053" x="556.7105263157895" y="636.7105263157895" transform="rotate(45, 560, 640)"></rect><rect width="6.578947368421053" height="6.578947368421053" x="636.7105263157895" y="636.7105263157895" fill="hsla(229, 26%, 61%, 1)" stroke="none" transform="rotate(45, 640, 640)"></rect><rect width="6.578947368421053" height="6.578947368421053" x="716.7105263157895" y="636.7105263157895" transform="rotate(45, 720, 640)"></rect><rect width="6.578947368421053" height="6.578947368421053" x="796.7105263157895" y="636.7105263157895" transform="rotate(45, 800, 640)"></rect><rect width="6.578947368421053" height="6.578947368421053" x="-3.2894736842105265" y="716.7105263157895" transform="rotate(45, 0, 720)"></rect><rect width="6.578947368421053" height="6.578947368421053" x="76.71052631578948" y="716.7105263157895" transform="rotate(45, 80, 720)"></rect><rect width="6.578947368421053" height="6.578947368421053" x="156.71052631578948" y="716.7105263157895" transform="rotate(45, 160, 720)"></rect><rect width="6.578947368421053" height="6.578947368421053" x="236.71052631578948" y="716.7105263157895" transform="rotate(45, 240, 720)"></rect><rect width="6.578947368421053" height="6.578947368421053" x="316.7105263157895" y="716.7105263157895" fill="hsla(229, 26%, 61%, 1)" stroke="none" transform="rotate(45, 320, 720)"></rect><rect width="6.578947368421053" height="6.578947368421053" x="396.7105263157895" y="716.7105263157895" transform="rotate(45, 400, 720)"></rect><rect width="6.578947368421053" height="6.578947368421053" x="476.7105263157895" y="716.7105263157895" transform="rotate(45, 480, 720)"></rect><rect width="6.578947368421053" height="6.578947368421053" x="556.7105263157895" y="716.7105263157895" transform="rotate(45, 560, 720)"></rect><rect width="6.578947368421053" height="6.578947368421053" x="636.7105263157895" y="716.7105263157895" transform="rotate(45, 640, 720)"></rect><rect width="6.578947368421053" height="6.578947368421053" x="716.7105263157895" y="716.7105263157895" transform="rotate(45, 720, 720)"></rect><rect width="6.578947368421053" height="6.578947368421053" x="796.7105263157895" y="716.7105263157895" transform="rotate(45, 800, 720)"></rect><rect width="6.578947368421053" height="6.578947368421053" x="-3.2894736842105265" y="796.7105263157895" transform="rotate(45, 0, 800)"></rect><rect width="6.578947368421053" height="6.578947368421053" x="76.71052631578948" y="796.7105263157895" transform="rotate(45, 80, 800)"></rect><rect width="6.578947368421053" height="6.578947368421053" x="156.71052631578948" y="796.7105263157895" transform="rotate(45, 160, 800)"></rect><rect width="6.578947368421053" height="6.578947368421053" x="236.71052631578948" y="796.7105263157895" transform="rotate(45, 240, 800)"></rect><rect width="6.578947368421053" height="6.578947368421053" x="316.7105263157895" y="796.7105263157895" transform="rotate(45, 320, 800)"></rect><rect width="6.578947368421053" height="6.578947368421053" x="396.7105263157895" y="796.7105263157895" transform="rotate(45, 400, 800)"></rect><rect width="6.578947368421053" height="6.578947368421053" x="476.7105263157895" y="796.7105263157895" transform="rotate(45, 480, 800)"></rect><rect width="6.578947368421053" height="6.578947368421053" x="556.7105263157895" y="796.7105263157895" transform="rotate(45, 560, 800)"></rect><rect width="6.578947368421053" height="6.578947368421053" x="636.7105263157895" y="796.7105263157895" transform="rotate(45, 640, 800)"></rect><rect width="6.578947368421053" height="6.578947368421053" x="716.7105263157895" y="796.7105263157895" transform="rotate(45, 720, 800)"></rect><rect width="6.578947368421053" height="6.578947368421053" x="796.7105263157895" y="796.7105263157895" transform="rotate(45, 800, 800)"></rect></g></svg>