<svg id="visual" viewBox="0 0 540 960" width="540" height="960" xmlns="http://www.w3.org/2000/svg" xmlns:xlink="http://www.w3.org/1999/xlink" version="1.1"><rect x="0" y="0" width="540" height="960" fill="#111111"></rect><defs><linearGradient id="grad1_0" x1="0%" y1="100%" x2="100%" y2="0%"><stop offset="30%" stop-color="#6f59fc" stop-opacity="1"></stop><stop offset="70%" stop-color="#6f59fc" stop-opacity="1"></stop></linearGradient></defs><defs><linearGradient id="grad1_1" x1="0%" y1="100%" x2="100%" y2="0%"><stop offset="30%" stop-color="#6f59fc" stop-opacity="1"></stop><stop offset="70%" stop-color="#5d4ac7" stop-opacity="1"></stop></linearGradient></defs><defs><linearGradient id="grad1_2" x1="0%" y1="100%" x2="100%" y2="0%"><stop offset="30%" stop-color="#4b3b95" stop-opacity="1"></stop><stop offset="70%" stop-color="#5d4ac7" stop-opacity="1"></stop></linearGradient></defs><defs><linearGradient id="grad1_3" x1="0%" y1="100%" x2="100%" y2="0%"><stop offset="30%" stop-color="#4b3b95" stop-opacity="1"></stop><stop offset="70%" stop-color="#392d65" stop-opacity="1"></stop></linearGradient></defs><defs><linearGradient id="grad1_4" x1="0%" y1="100%" x2="100%" y2="0%"><stop offset="30%" stop-color="#261f39" stop-opacity="1"></stop><stop offset="70%" stop-color="#392d65" stop-opacity="1"></stop></linearGradient></defs><defs><linearGradient id="grad1_5" x1="0%" y1="100%" x2="100%" y2="0%"><stop offset="30%" stop-color="#261f39" stop-opacity="1"></stop><stop offset="70%" stop-color="#111111" stop-opacity="1"></stop></linearGradient></defs><defs><linearGradient id="grad2_0" x1="0%" y1="100%" x2="100%" y2="0%"><stop offset="30%" stop-color="#6f59fc" stop-opacity="1"></stop><stop offset="70%" stop-color="#6f59fc" stop-opacity="1"></stop></linearGradient></defs><defs><linearGradient id="grad2_1" x1="0%" y1="100%" x2="100%" y2="0%"><stop offset="30%" stop-color="#5d4ac7" stop-opacity="1"></stop><stop offset="70%" stop-color="#6f59fc" stop-opacity="1"></stop></linearGradient></defs><defs><linearGradient id="grad2_2" x1="0%" y1="100%" x2="100%" y2="0%"><stop offset="30%" stop-color="#5d4ac7" stop-opacity="1"></stop><stop offset="70%" stop-color="#4b3b95" stop-opacity="1"></stop></linearGradient></defs><defs><linearGradient id="grad2_3" x1="0%" y1="100%" x2="100%" y2="0%"><stop offset="30%" stop-color="#392d65" stop-opacity="1"></stop><stop offset="70%" stop-color="#4b3b95" stop-opacity="1"></stop></linearGradient></defs><defs><linearGradient id="grad2_4" x1="0%" y1="100%" x2="100%" y2="0%"><stop offset="30%" stop-color="#392d65" stop-opacity="1"></stop><stop offset="70%" stop-color="#261f39" stop-opacity="1"></stop></linearGradient></defs><defs><linearGradient id="grad2_5" x1="0%" y1="100%" x2="100%" y2="0%"><stop offset="30%" stop-color="#111111" stop-opacity="1"></stop><stop offset="70%" stop-color="#261f39" stop-opacity="1"></stop></linearGradient></defs><g transform="translate(540, 960)"><path d="M-459 0C-448.5 -38.7 -438 -77.5 -426 -114.1C-414 -150.8 -400.5 -185.4 -385.4 -222.5C-370.2 -259.6 -353.4 -299.1 -324.6 -324.6C-295.7 -350 -254.8 -361.3 -219 -379.3C-183.2 -397.4 -152.6 -422.2 -117 -436.6C-81.3 -451 -40.7 -455 0 -459L0 0Z" fill="#1c1925"></path><path d="M-382.5 0C-373.7 -32.3 -365 -64.6 -355 -95.1C-345 -125.7 -333.8 -154.5 -321.2 -185.4C-308.5 -216.3 -294.5 -249.3 -270.5 -270.5C-246.4 -291.7 -212.3 -301.1 -182.5 -316.1C-152.7 -331.1 -127.2 -351.8 -97.5 -363.8C-67.8 -375.8 -33.9 -379.2 0 -382.5L0 0Z" fill="#30264f"></path><path d="M-306 0C-299 -25.8 -292 -51.6 -284 -76.1C-276 -100.5 -267 -123.6 -256.9 -148.3C-246.8 -173.1 -235.6 -199.4 -216.4 -216.4C-197.1 -233.3 -169.8 -240.8 -146 -252.9C-122.2 -264.9 -101.8 -281.5 -78 -291.1C-54.2 -300.7 -27.1 -303.3 0 -306L0 0Z" fill="#42347c"></path><path d="M-229.5 0C-224.2 -19.4 -219 -38.7 -213 -57.1C-207 -75.4 -200.3 -92.7 -192.7 -111.3C-185.1 -129.8 -176.7 -149.6 -162.3 -162.3C-147.8 -175 -127.4 -180.6 -109.5 -189.7C-91.6 -198.7 -76.3 -211.1 -58.5 -218.3C-40.7 -225.5 -20.3 -227.5 0 -229.5L0 0Z" fill="#5443ae"></path><path d="M-153 0C-149.5 -12.9 -146 -25.8 -142 -38C-138 -50.3 -133.5 -61.8 -128.5 -74.2C-123.4 -86.5 -117.8 -99.7 -108.2 -108.2C-98.6 -116.7 -84.9 -120.4 -73 -126.4C-61.1 -132.5 -50.9 -140.7 -39 -145.5C-27.1 -150.3 -13.6 -151.7 0 -153L0 0Z" fill="#6651e1"></path><path d="M-76.5 0C-74.7 -6.5 -73 -12.9 -71 -19C-69 -25.1 -66.8 -30.9 -64.2 -37.1C-61.7 -43.3 -58.9 -49.9 -54.1 -54.1C-49.3 -58.3 -42.5 -60.2 -36.5 -63.2C-30.5 -66.2 -25.4 -70.4 -19.5 -72.8C-13.6 -75.2 -6.8 -75.8 0 -76.5L0 0Z" fill="#6f59fc"></path></g><g transform="translate(0, 0)"><path d="M459 0C448.7 38.8 438.5 77.5 426 114.1C413.5 150.8 398.7 185.2 381.9 220.5C365.1 255.8 346.3 291.8 319.6 319.6C292.9 347.4 258.2 367 224 388C189.8 408.9 156.1 431.3 118.8 443.4C81.5 455.4 40.8 457.2 0 459L0 0Z" fill="#1c1925"></path><path d="M382.5 0C374 32.3 365.4 64.6 355 95.1C344.6 125.6 332.2 154.4 318.3 183.7C304.3 213.1 288.6 243.2 266.3 266.3C244.1 289.5 215.2 305.8 186.7 323.3C158.2 340.8 130 359.4 99 369.5C68 379.5 34 381 0 382.5L0 0Z" fill="#30264f"></path><path d="M306 0C299.2 25.8 292.3 51.7 284 76.1C275.6 100.5 265.8 123.5 254.6 147C243.4 170.5 230.9 194.5 213.1 213.1C195.3 231.6 172.1 244.7 149.3 258.7C126.5 272.6 104 287.5 79.2 295.6C54.4 303.6 27.2 304.8 0 306L0 0Z" fill="#42347c"></path><path d="M229.5 0C224.4 19.4 219.2 38.8 213 57.1C206.7 75.4 199.3 92.6 191 110.2C182.6 127.9 173.2 145.9 159.8 159.8C146.4 173.7 129.1 183.5 112 194C94.9 204.5 78 215.6 59.4 221.7C40.8 227.7 20.4 228.6 0 229.5L0 0Z" fill="#5443ae"></path><path d="M153 0C149.6 12.9 146.2 25.8 142 38C137.8 50.3 132.9 61.7 127.3 73.5C121.7 85.3 115.4 97.3 106.5 106.5C97.6 115.8 86.1 122.3 74.7 129.3C63.3 136.3 52 143.8 39.6 147.8C27.2 151.8 13.6 152.4 0 153L0 0Z" fill="#6651e1"></path><path d="M76.5 0C74.8 6.5 73.1 12.9 71 19C68.9 25.1 66.4 30.9 63.7 36.7C60.9 42.6 57.7 48.6 53.3 53.3C48.8 57.9 43 61.2 37.3 64.7C31.6 68.2 26 71.9 19.8 73.9C13.6 75.9 6.8 76.2 0 76.5L0 0Z" fill="#6f59fc"></path></g></svg>