<svg id="visual" viewBox="0 0 540 960" width="540" height="960" xmlns="http://www.w3.org/2000/svg" xmlns:xlink="http://www.w3.org/1999/xlink" version="1.1"><rect x="0" y="0" width="540" height="960" fill="#e4e4e7"></rect><defs><linearGradient id="grad1_0" x1="0%" y1="100%" x2="100%" y2="0%"><stop offset="30%" stop-color="#4338ca" stop-opacity="1"></stop><stop offset="70%" stop-color="#4338ca" stop-opacity="1"></stop></linearGradient></defs><defs><linearGradient id="grad1_1" x1="0%" y1="100%" x2="100%" y2="0%"><stop offset="30%" stop-color="#4338ca" stop-opacity="1"></stop><stop offset="70%" stop-color="#6056d2" stop-opacity="1"></stop></linearGradient></defs><defs><linearGradient id="grad1_2" x1="0%" y1="100%" x2="100%" y2="0%"><stop offset="30%" stop-color="#7a72d9" stop-opacity="1"></stop><stop offset="70%" stop-color="#6056d2" stop-opacity="1"></stop></linearGradient></defs><defs><linearGradient id="grad1_3" x1="0%" y1="100%" x2="100%" y2="0%"><stop offset="30%" stop-color="#7a72d9" stop-opacity="1"></stop><stop offset="70%" stop-color="#948fdf" stop-opacity="1"></stop></linearGradient></defs><defs><linearGradient id="grad1_4" x1="0%" y1="100%" x2="100%" y2="0%"><stop offset="30%" stop-color="#aeabe3" stop-opacity="1"></stop><stop offset="70%" stop-color="#948fdf" stop-opacity="1"></stop></linearGradient></defs><defs><linearGradient id="grad1_5" x1="0%" y1="100%" x2="100%" y2="0%"><stop offset="30%" stop-color="#aeabe3" stop-opacity="1"></stop><stop offset="70%" stop-color="#c8c7e6" stop-opacity="1"></stop></linearGradient></defs><defs><linearGradient id="grad1_6" x1="0%" y1="100%" x2="100%" y2="0%"><stop offset="30%" stop-color="#e4e4e7" stop-opacity="1"></stop><stop offset="70%" stop-color="#c8c7e6" stop-opacity="1"></stop></linearGradient></defs><defs><linearGradient id="grad2_0" x1="0%" y1="100%" x2="100%" y2="0%"><stop offset="30%" stop-color="#4338ca" stop-opacity="1"></stop><stop offset="70%" stop-color="#4338ca" stop-opacity="1"></stop></linearGradient></defs><defs><linearGradient id="grad2_1" x1="0%" y1="100%" x2="100%" y2="0%"><stop offset="30%" stop-color="#6056d2" stop-opacity="1"></stop><stop offset="70%" stop-color="#4338ca" stop-opacity="1"></stop></linearGradient></defs><defs><linearGradient id="grad2_2" x1="0%" y1="100%" x2="100%" y2="0%"><stop offset="30%" stop-color="#6056d2" stop-opacity="1"></stop><stop offset="70%" stop-color="#7a72d9" stop-opacity="1"></stop></linearGradient></defs><defs><linearGradient id="grad2_3" x1="0%" y1="100%" x2="100%" y2="0%"><stop offset="30%" stop-color="#948fdf" stop-opacity="1"></stop><stop offset="70%" stop-color="#7a72d9" stop-opacity="1"></stop></linearGradient></defs><defs><linearGradient id="grad2_4" x1="0%" y1="100%" x2="100%" y2="0%"><stop offset="30%" stop-color="#948fdf" stop-opacity="1"></stop><stop offset="70%" stop-color="#aeabe3" stop-opacity="1"></stop></linearGradient></defs><defs><linearGradient id="grad2_5" x1="0%" y1="100%" x2="100%" y2="0%"><stop offset="30%" stop-color="#c8c7e6" stop-opacity="1"></stop><stop offset="70%" stop-color="#aeabe3" stop-opacity="1"></stop></linearGradient></defs><defs><linearGradient id="grad2_6" x1="0%" y1="100%" x2="100%" y2="0%"><stop offset="30%" stop-color="#c8c7e6" stop-opacity="1"></stop><stop offset="70%" stop-color="#e4e4e7" stop-opacity="1"></stop></linearGradient></defs><g transform="translate(540, 960)"><path d="M-486 0C-481.1 -50.6 -476.3 -101.1 -462.2 -150.2C-448.1 -199.3 -424.8 -246.8 -389.9 -283.3C-355.1 -319.8 -308.7 -345.2 -264.5 -364.1C-220.3 -383 -178.4 -395.4 -134.7 -414.7C-91 -433.9 -45.5 -460 0 -486L0 0Z" fill="#d6d6e6"></path><path d="M-416.6 0C-412.4 -43.3 -408.3 -86.7 -396.2 -128.7C-384.1 -170.8 -364.1 -211.6 -334.2 -242.8C-304.4 -274.1 -264.6 -295.8 -226.7 -312C-188.9 -328.3 -152.9 -338.9 -115.5 -355.4C-78 -371.9 -39 -394.2 0 -416.6L0 0Z" fill="#bbb9e4"></path><path d="M-347.1 0C-343.7 -36.1 -340.2 -72.2 -330.2 -107.3C-320.1 -142.3 -303.4 -176.3 -278.5 -202.4C-253.6 -228.4 -220.5 -246.5 -188.9 -260C-157.4 -273.5 -127.5 -282.4 -96.2 -296.2C-65 -309.9 -32.5 -328.5 0 -347.1L0 0Z" fill="#a19de1"></path><path d="M-277.7 0C-274.9 -28.9 -272.2 -57.8 -264.1 -85.8C-256.1 -113.9 -242.8 -141.1 -222.8 -161.9C-202.9 -182.7 -176.4 -197.2 -151.1 -208C-125.9 -218.8 -102 -226 -77 -236.9C-52 -247.9 -26 -262.8 0 -277.7L0 0Z" fill="#8781dc"></path><path d="M-208.3 0C-206.2 -21.7 -204.1 -43.3 -198.1 -64.4C-192.1 -85.4 -182.1 -105.8 -167.1 -121.4C-152.2 -137.1 -132.3 -147.9 -113.4 -156C-94.4 -164.1 -76.5 -169.5 -57.7 -177.7C-39 -186 -19.5 -197.1 0 -208.3L0 0Z" fill="#6d64d6"></path><path d="M-138.9 0C-137.5 -14.4 -136.1 -28.9 -132.1 -42.9C-128 -56.9 -121.4 -70.5 -111.4 -80.9C-101.5 -91.4 -88.2 -98.6 -75.6 -104C-63 -109.4 -51 -113 -38.5 -118.5C-26 -124 -13 -131.4 0 -138.9L0 0Z" fill="#5247ce"></path><path d="M-69.4 0C-68.7 -7.2 -68 -14.4 -66 -21.5C-64 -28.5 -60.7 -35.3 -55.7 -40.5C-50.7 -45.7 -44.1 -49.3 -37.8 -52C-31.5 -54.7 -25.5 -56.5 -19.2 -59.2C-13 -62 -6.5 -65.7 0 -69.4L0 0Z" fill="#4338ca"></path></g><g transform="translate(0, 0)"><path d="M486 0C453.3 40.8 420.5 81.6 411.8 133.8C403.1 186 418.4 249.5 393.2 285.7C367.9 321.8 302.1 330.6 254.5 350.3C206.9 370 177.5 400.7 138.1 425.1C98.7 449.6 49.4 467.8 0 486L0 0Z" fill="#d6d6e6"></path><path d="M416.6 0C388.5 35 360.4 70 353 114.7C345.5 159.4 358.7 213.9 337 244.9C315.4 275.8 259 283.4 218.2 300.3C177.3 317.2 152.2 343.4 118.4 364.4C84.6 385.3 42.3 401 0 416.6L0 0Z" fill="#bbb9e4"></path><path d="M347.1 0C323.8 29.2 300.4 58.3 294.1 95.6C287.9 132.8 298.9 178.2 280.8 204C262.8 229.9 215.8 236.1 181.8 250.2C147.8 264.3 126.8 286.2 98.7 303.7C70.5 321.1 35.3 334.1 0 347.1L0 0Z" fill="#a19de1"></path><path d="M277.7 0C259 23.3 240.3 46.6 235.3 76.5C230.3 106.3 239.1 142.6 224.7 163.2C210.2 183.9 172.6 188.9 145.4 200.2C118.2 211.4 101.4 229 78.9 242.9C56.4 256.9 28.2 267.3 0 277.7L0 0Z" fill="#8781dc"></path><path d="M208.3 0C194.3 17.5 180.2 35 176.5 57.3C172.8 79.7 179.3 106.9 168.5 122.4C157.7 137.9 129.5 141.7 109.1 150.1C88.7 158.6 76.1 171.7 59.2 182.2C42.3 192.7 21.2 200.5 0 208.3L0 0Z" fill="#6d64d6"></path><path d="M138.9 0C129.5 11.7 120.1 23.3 117.7 38.2C115.2 53.1 119.6 71.3 112.3 81.6C105.1 91.9 86.3 94.5 72.7 100.1C59.1 105.7 50.7 114.5 39.5 121.5C28.2 128.4 14.1 133.7 0 138.9L0 0Z" fill="#5247ce"></path><path d="M69.4 0C64.8 5.8 60.1 11.7 58.8 19.1C57.6 26.6 59.8 35.6 56.2 40.8C52.6 46 43.2 47.2 36.4 50C29.6 52.9 25.4 57.2 19.7 60.7C14.1 64.2 7.1 66.8 0 69.4L0 0Z" fill="#4338ca"></path></g></svg>